<?xml version="1.0" encoding="utf-8"?>
<!-- Generator: Adobe Illustrator 20.1.0, SVG Export Plug-In . SVG Version: 6.00 Build 0)  -->
<svg version="1.1" id="Layer_1" xmlns="http://www.w3.org/2000/svg" xmlns:xlink="http://www.w3.org/1999/xlink" x="0px" y="0px"
	 viewBox="0 0 150 80" style="enable-background:new 0 0 150 80;" xml:space="preserve">
<style type="text/css">
	.st0{fill:#FFC373;}
	.st1{fill:#FC92AE;}
	.st2{fill:#FF36C2;}
	.st3{fill:#FFC2CC;}
	.st4{fill:#FFE650;}
	.st5{fill:#FFFFFF;}
</style>
<path class="st0" d="M76.8,3C41.2,3,12.3,14.7,12.3,39.6c0,24.9,28.9,39.5,64.6,39.5s64.6-14.6,64.6-39.5C141.4,14.7,112.5,3,76.8,3
	z M76.8,44.3c-19.3,0-18.8-9.4-18.8-9.4s1.7-7.5,18.8-7.5c17.1,0,19.6,6.8,19.6,6.8S96.2,44.3,76.8,44.3z"/>
<path class="st1" d="M141.4,34.9c-2.6-27.9-45.6-34-67.9-34s-60,5.6-62.5,35.2c-1.2,29,7.5,14.4,13.5,16c3.7,1,3.5,14.2,9.7,16.3
	c10.6,3.6,16.8-5.6,22.1-5.3c5.3,0.2,9.3,15,23.5,13c25.5-3.5,21.2-21.8,29.9-25.3c8.1-3.3,14.3,6.9,20,7.1
	C137.5,58.1,143.2,53.6,141.4,34.9z M94.7,35.2c0,0-0.4,7.2-18.1,7.2s-17.2-7.2-17.2-7.2s-0.2-7.8,17.4-7.8
	C95.8,27.4,94.7,35.2,94.7,35.2z"/>
<path class="st2" d="M63.4,13.3l-3.8-2.9c-0.2-0.2-0.3-0.5-0.1-0.7l0.1-0.1c0.2-0.2,0.5-0.3,0.7-0.1l3.8,2.9
	c0.2,0.2,0.3,0.5,0.1,0.7l-0.1,0.1C64,13.4,63.7,13.5,63.4,13.3z"/>
<path class="st2" d="M38.3,24.4l-2.9,3.8c-0.2,0.2-0.5,0.3-0.7,0.1l-0.1-0.1c-0.2-0.2-0.3-0.5-0.1-0.7l2.9-3.8
	c0.2-0.2,0.5-0.3,0.7-0.1l0.1,0.1C38.4,23.8,38.5,24.2,38.3,24.4z"/>
<path class="st2" d="M51,45.1l-4.8,0.3c-0.3,0-0.5-0.2-0.5-0.5l0-0.1c0-0.3,0.2-0.5,0.5-0.5l4.8-0.3c0.3,0,0.5,0.2,0.5,0.5l0,0.1
	C51.5,44.9,51.2,45.1,51,45.1z"/>
<path class="st2" d="M88.9,21.7l1.8-4.4c0.1-0.3,0.4-0.4,0.7-0.3l0.1,0c0.3,0.1,0.4,0.4,0.3,0.7l-1.8,4.4c-0.1,0.3-0.4,0.4-0.7,0.3
	l-0.1,0C88.9,22.2,88.8,21.9,88.9,21.7z"/>
<path class="st2" d="M55.5,29.4l-4.3,2c-0.3,0.1-0.6,0-0.7-0.3l0-0.1c-0.1-0.3,0-0.6,0.3-0.7l4.3-2c0.3-0.1,0.6,0,0.7,0.3l0,0.1
	C55.9,29,55.8,29.3,55.5,29.4z"/>
<path class="st2" d="M119.4,49.4l-2.4-4.1c-0.1-0.2-0.1-0.6,0.2-0.7l0.1,0c0.2-0.1,0.6-0.1,0.7,0.2l2.4,4.1c0.1,0.2,0.1,0.6-0.2,0.7
	l-0.1,0C119.9,49.7,119.6,49.6,119.4,49.4z"/>
<path class="st2" d="M80.9,53.9l4.4,1.8c0.3,0.1,0.4,0.4,0.3,0.7l0,0.1c-0.1,0.3-0.4,0.4-0.7,0.3L80.5,55c-0.3-0.1-0.4-0.4-0.3-0.7
	l0-0.1C80.3,54,80.6,53.8,80.9,53.9z"/>
<path class="st2" d="M32.4,14.5l-4.8-0.2c-0.3,0-0.5-0.3-0.5-0.5l0-0.1c0-0.3,0.3-0.5,0.5-0.5l4.8,0.2c0.3,0,0.5,0.3,0.5,0.5l0,0.1
	C33,14.3,32.7,14.5,32.4,14.5z"/>
<path class="st2" d="M85,6l-4.6,1.2c-0.3,0.1-0.6-0.1-0.6-0.4l0-0.1c-0.1-0.3,0.1-0.6,0.4-0.6L84.7,5c0.3-0.1,0.6,0.1,0.6,0.4l0,0.1
	C85.4,5.7,85.3,6,85,6z"/>
<path class="st2" d="M107.2,32.3l-0.3-4.8c0-0.3,0.2-0.5,0.5-0.5l0.1,0c0.3,0,0.5,0.2,0.5,0.5l0.3,4.8c0,0.3-0.2,0.5-0.5,0.5l-0.1,0
	C107.4,32.8,107.2,32.6,107.2,32.3z"/>
<path class="st3" d="M56.4,21.5h-4.8c-0.3,0-0.5-0.2-0.5-0.5v-0.1c0-0.3,0.2-0.5,0.5-0.5h4.8c0.3,0,0.5,0.2,0.5,0.5V21
	C56.9,21.2,56.7,21.5,56.4,21.5z"/>
<path class="st3" d="M74.8,47.3l-3.4,3.4c-0.2,0.2-0.5,0.2-0.7,0l-0.1-0.1c-0.2-0.2-0.2-0.5,0-0.7l3.4-3.4c0.2-0.2,0.5-0.2,0.7,0
	l0.1,0.1C75,46.8,75,47.1,74.8,47.3z"/>
<path class="st3" d="M98.2,16.3L94.1,14c-0.2-0.1-0.3-0.5-0.2-0.7l0-0.1c0.1-0.2,0.5-0.3,0.7-0.2l4.1,2.4c0.2,0.1,0.3,0.5,0.2,0.7
	l0,0.1C98.8,16.4,98.5,16.5,98.2,16.3z"/>
<path class="st3" d="M116.8,35.4l-4.3,2c-0.3,0.1-0.6,0-0.7-0.3l0-0.1c-0.1-0.3,0-0.6,0.3-0.7l4.3-2c0.3-0.1,0.6,0,0.7,0.3l0,0.1
	C117.2,35,117.1,35.3,116.8,35.4z"/>
<path class="st3" d="M27.6,38.2l-2.7-3.9c-0.2-0.2-0.1-0.6,0.1-0.7l0.1-0.1c0.2-0.2,0.6-0.1,0.7,0.1l2.7,3.9
	c0.2,0.2,0.1,0.6-0.1,0.7l-0.1,0.1C28.1,38.4,27.8,38.4,27.6,38.2z"/>
<path class="st3" d="M81.2,24.9l-4.1-2.4c-0.2-0.1-0.3-0.5-0.2-0.7l0-0.1c0.1-0.2,0.5-0.3,0.7-0.2l4.1,2.4c0.2,0.1,0.3,0.5,0.2,0.7
	l0,0.1C81.8,24.9,81.5,25,81.2,24.9z"/>
<path class="st3" d="M113.2,15.1l-3.8,2.9c-0.2,0.2-0.5,0.1-0.7-0.1l-0.1-0.1c-0.2-0.2-0.1-0.5,0.1-0.7l3.8-2.9
	c0.2-0.2,0.5-0.1,0.7,0.1l0.1,0.1C113.4,14.6,113.4,14.9,113.2,15.1z"/>
<path class="st4" d="M43.3,36.8l-3.8-2.9c-0.2-0.2-0.3-0.5-0.1-0.7l0.1-0.1c0.2-0.2,0.5-0.3,0.7-0.1l3.8,2.9
	c0.2,0.2,0.3,0.5,0.1,0.7L44,36.7C43.9,36.9,43.5,37,43.3,36.8z"/>
<path class="st4" d="M61.8,4.9l-4.5,1.5c-0.3,0.1-0.6-0.1-0.6-0.3l0-0.1c-0.1-0.3,0.1-0.6,0.3-0.6l4.5-1.5c0.3-0.1,0.6,0.1,0.6,0.3
	l0,0.1C62.2,4.5,62.1,4.8,61.8,4.9z"/>
<path class="st4" d="M95.1,41.9l-2.9,3.8C92,46,91.7,46,91.5,45.8l-0.1-0.1c-0.2-0.2-0.3-0.5-0.1-0.7l2.9-3.8
	c0.2-0.2,0.5-0.3,0.7-0.1l0.1,0.1C95.2,41.4,95.2,41.7,95.1,41.9z"/>
<path class="st4" d="M120.6,25.2l-4.2-2.2c-0.2-0.1-0.3-0.4-0.2-0.7l0-0.1c0.1-0.2,0.4-0.3,0.7-0.2l4.2,2.2c0.2,0.1,0.3,0.4,0.2,0.7
	l0,0.1C121.1,25.3,120.8,25.4,120.6,25.2z"/>
<path class="st4" d="M37.9,15.4l-2.4-4.1c-0.1-0.2-0.1-0.6,0.2-0.7l0.1,0c0.2-0.1,0.6-0.1,0.7,0.2l2.4,4.1c0.1,0.2,0.1,0.6-0.2,0.7
	l-0.1,0C38.3,15.8,38,15.7,37.9,15.4z"/>
<path class="st4" d="M71.5,17.6l-3.2,3.6c-0.2,0.2-0.5,0.2-0.7,0l-0.1-0.1c-0.2-0.2-0.2-0.5,0-0.7l3.2-3.6c0.2-0.2,0.5-0.2,0.7,0
	l0.1,0.1C71.6,17,71.7,17.4,71.5,17.6z"/>
<path class="st4" d="M25.5,27.2L21,28.7c-0.3,0.1-0.6-0.1-0.6-0.3l0-0.1c-0.1-0.3,0.1-0.6,0.3-0.6l4.5-1.5c0.3-0.1,0.6,0.1,0.6,0.3
	l0,0.1C25.9,26.8,25.7,27.1,25.5,27.2z"/>
<path class="st4" d="M57.3,53l-4.8,0.3c-0.3,0-0.5-0.2-0.5-0.5l0-0.1c0-0.3,0.2-0.5,0.5-0.5l4.8-0.3c0.3,0,0.5,0.2,0.5,0.5l0,0.1
	C57.8,52.8,57.5,53,57.3,53z"/>
<path class="st5" d="M96.4,4.7c0,0,30.5,4.6,39.6,20.1c3.5,6,0.2,5.5-0.4,4.6c-0.5-0.8-4.2-6.8-8.9-10.4
	C118.5,12.7,105.3,7.1,96.4,4.7z"/>
<path class="st5" d="M136,31.1c0.2-0.1,2.3,1.2,2.5-0.9c0.1-1.1,2.2,4.9,0.4,5.4C136.7,36.3,135.8,31.2,136,31.1z"/>
<path class="st2" d="M129,33.4l-4.7-0.7c-0.3,0-0.5-0.3-0.4-0.6l0-0.1c0-0.3,0.3-0.5,0.6-0.4l4.7,0.7c0.3,0,0.5,0.3,0.4,0.6l0,0.1
	C129.5,33.2,129.3,33.4,129,33.4z"/>
</svg>
