<?xml version="1.0" encoding="utf-8"?>
<!-- Generator: Adobe Illustrator 20.1.0, SVG Export Plug-In . SVG Version: 6.00 Build 0)  -->
<svg version="1.1" id="Layer_1" xmlns="http://www.w3.org/2000/svg" xmlns:xlink="http://www.w3.org/1999/xlink" x="0px" y="0px"
	 viewBox="0 0 288 288" style="enable-background:new 0 0 288 288;" xml:space="preserve">
<style type="text/css">
	.st0{fill:#FFE9ED;}
	.st1{fill:#FC92AE;}
</style>
<path class="st0" d="M143.1,96.8c0,0,1.2,3.9-0.3,5.4c-1.6,1.5-5.4,0-5.4,0c0,0-4-4.3-4.1-4.3c-1.6-1.8-1.7-4.5-0.2-5.9
	c1.6-1.5,4.2-1.2,5.9,0.6C139.1,92.5,143.1,96.8,143.1,96.8z"/>
<path class="st1" d="M137.4,102.2c0,0,4,4.2,4.3,4.6s3.1,3,5.8,0.5c2.7-2.5,0.1-5.6-0.2-6c-0.3-0.3-4.2-4.5-4.2-4.5
	S142.6,101.8,137.4,102.2z"/>
</svg>
