<?xml version="1.0" encoding="utf-8"?>
<!-- Generator: Adobe Illustrator 20.1.0, SVG Export Plug-In . SVG Version: 6.00 Build 0)  -->
<svg version="1.1" id="Layer_1" xmlns="http://www.w3.org/2000/svg" xmlns:xlink="http://www.w3.org/1999/xlink" x="0px" y="0px"
	 viewBox="0 0 20 20" style="enable-background:new 0 0 20 20;" xml:space="preserve">
<style type="text/css">
	.st0{fill:#FFE9ED;}
	.st1{fill:#FC92AE;}
</style>
<path class="st0" d="M12.1,6.8c0,0,1.2,3.9-0.3,5.4c-1.6,1.5-5.4,0-5.4,0c0,0-4-4.3-4.1-4.3C0.7,6,0.6,3.4,2.2,1.9
	c1.6-1.5,4.2-1.2,5.9,0.6C8.1,2.5,12.1,6.8,12.1,6.8z"/>
<path class="st1" d="M6.4,12.2c0,0,4,4.2,4.3,4.6c0.3,0.4,3.1,3,5.8,0.5s0.1-5.6-0.2-6C16,11,12.1,6.8,12.1,6.8S11.6,11.8,6.4,12.2z
	"/>
</svg>
