<svg id="Layer_1" data-name="Layer 1" xmlns="http://www.w3.org/2000/svg" viewBox="0 0 32.17 30.52"><defs><style>.cls-1{fill:#e0aea6;}.cls-2{fill:#db9d95;}</style></defs><title>hand_thumb</title><path class="cls-1" d="M114.85,154.57c2.28,1.76.44.31,0,0s-.87-.74-1.29-1.11c-.68-.6-1.34-1.22-2-1.84-2.23-2.05-4.6-3.89-7-5.75-2.08-1.6-6-1.76-8.41-1.1a11.13,11.13,0,0,0-6.52,5,11,11,0,0,0-1.1,8.41,13,13,0,0,0,5,6.52c-2.28-1.76-.44-.31,0,0s.87.74,1.29,1.11c.68.6,1.34,1.22,2,1.84,2.23,2.05,4.6,3.89,7,5.75,2.08,1.6,6,1.76,8.41,1.1a11.13,11.13,0,0,0,6.52-5,11,11,0,0,0,1.1-8.41,13,13,0,0,0-5-6.52Z" transform="translate(-88.11 -144.37)"/><ellipse class="cls-2" cx="112.11" cy="166.84" rx="6.46" ry="5.22" transform="translate(-175.55 -1.7) rotate(-49.19)"/></svg>