<?xml version="1.0" encoding="utf-8"?>
<!-- Generator: Adobe Illustrator 20.1.0, SVG Export Plug-In . SVG Version: 6.00 Build 0)  -->
<svg version="1.1" xmlns="http://www.w3.org/2000/svg" xmlns:xlink="http://www.w3.org/1999/xlink" x="0px" y="0px"
	 viewBox="0 0 792 612" style="enable-background:new 0 0 792 612;" xml:space="preserve">
<style type="text/css">
	.st0{display:none;}
	.st1{display:inline;opacity:3.000000e-02;}
	.st2{display:inline;opacity:0.12;}
	.st3{opacity:0.12;}
	.st4{opacity:0.7;}
	.st5{fill:#FFFFFF;}
	.st6{display:inline;opacity:0.7;}
	.st7{display:inline;}
	.st8{display:inline;fill:none;}
	.st9{font-family:'MyriadPro-Regular';}
	.st10{font-size:12px;}
	.st11{display:inline;fill:#BE1E2D;}
	.st12{display:inline;fill:none;stroke:#114A9F;stroke-width:0.5;stroke-miterlimit:10;}
</style>
<g id="Shad" class="st0">
	<path class="st1" d="M396.4,121.1c0,0,107.6,0.6,132.1,14.7c23.8,13.7,59.1,56.6,71.6,91c7.9,22-2.8,48.6-2.8,80.6
		c0,25.2,13.8,63.9,8.6,82.8c-11.7,43.2-27.8,62.4-53.7,80.2c-53.1,36.7-155.8,23.3-155.8,23.3"/>
	<path class="st1" d="M395,125.2c0,0-77.6,0.6-102.1,14.7c-23.8,13.7-59.1,56.6-71.6,91c-7.9,22,2.8,48.6,2.8,80.6
		c0,25.2-13.8,63.9-8.6,82.8c11.7,43.2,27.8,62.4,53.7,80.2c53.1,36.7,125.8,23.3,125.8,23.3"/>
	<g class="st2">
		<g>
			<path d="M234,278.3c42.4,18.6,87.4,24.7,133.2,18.5c10.1-1.4,16.6-14.9,13.6-24c-3.6-11.2-13.1-15.1-24-13.6
				c4.4-0.6-3,0.3-3.8,0.4c-2.4,0.2-4.8,0.4-7.2,0.6c-4.8,0.3-9.6,0.4-14.4,0.4c-4.8,0-9.6-0.2-14.4-0.5c-2.4-0.2-4.8-0.4-7.2-0.6
				c-0.8-0.1-8.1-1-3.8-0.4c-9.5-1.4-19-3.4-28.2-6c-4.6-1.3-9.2-2.8-13.8-4.4c-2.3-0.8-4.5-1.6-6.8-2.5c-1.1-0.4-2.2-0.9-3.3-1.3
				c1.9,0.8,1.8,0.7-0.3-0.2c-9.3-4.1-21.4-3.1-26.7,7C222.5,260,224,273.9,234,278.3L234,278.3z"/>
		</g>
	</g>
	<g class="st2">
		<g>
			<path d="M355.7,466.8c6.1-0.3,12.2-0.1,18.3,0.7c5.9,0.8,13.7-3.4,17.7-7.3c4.3-4.3,7.6-11.5,7.3-17.7
				c-0.3-6.5-2.4-13.2-7.3-17.7c-1.7-1.3-3.4-2.6-5.1-3.9c-3.9-2.3-8.1-3.4-12.6-3.4c-6.1-0.8-12.2-1-18.3-0.7
				c-13,0.7-25.6,11-25,25C331.2,454.8,341.7,467.6,355.7,466.8L355.7,466.8z"/>
		</g>
	</g>
	<g class="st2">
		<g>
			<path d="M357.1,303.1c7.4,17,11.4,35.4,12,53.9c0.2,6.4,10.2,6.4,10,0c-0.7-20.4-5.3-40.2-13.4-58.9c-1.1-2.5-4.7-3-6.8-1.8
				C356.3,297.8,356,300.6,357.1,303.1L357.1,303.1z"/>
		</g>
	</g>
	<g class="st2">
		<g>
			<path d="M349.9,306.5c7.1,9.7,11.7,20.9,13.3,32.8c0.8,6,0.8,12.3,0.1,18.4c-0.4,2.7-0.9,5.4-1.6,8.1c-0.6,2.1-1.1,4.9-3.2,6.1
				c-5.6,3.2-0.6,11.8,5,8.6c6.4-3.6,8-11.6,9.1-18.3c1.2-7,1.5-14.2,0.8-21.3c-1.5-14.2-6.4-27.9-14.8-39.5
				c-1.6-2.2-4.3-3.3-6.8-1.8C349.6,300.9,348.3,304.3,349.9,306.5L349.9,306.5z"/>
		</g>
	</g>
	<g class="st2">
		<g>
			<path d="M372.5,396.2c6.2,0.2,11.9,2.3,16.9,5.9c0.8-3.1,1.7-6.2,2.5-9.3c-6,0.6-11.9,0.7-17.9,0.4c-6.4-0.3-6.4,9.7,0,10
				c6,0.3,12,0.2,17.9-0.4c5-0.5,6.7-6.4,2.5-9.3c-6.4-4.6-14.1-7-22-7.3C366,386,366,396,372.5,396.2L372.5,396.2z"/>
		</g>
	</g>
	<g class="st2">
		<g>
			<path d="M369.6,400.1c8.3-4.2,17.4-7,26.6-8.1c2.7-0.3,5-2.1,5-5c0-2.5-2.3-5.3-5-5c-11.1,1.3-21.7,4.4-31.7,9.5
				C358.8,394.4,363.8,403,369.6,400.1L369.6,400.1z"/>
		</g>
	</g>
	<g class="st2">
		<g>
			<path d="M338.6,372.1c0.9,4.6-0.9,9.3,0,13.9c1,5,4.9,8.5,9.2,10.7c4.7,2.3,10,4.7,15.3,3.8c5.3-0.9,9.4-5.1,9.6-10.5
				c0.3-6.4-9.7-6.4-10,0c-0.1,2.9-11.5-2.6-12.6-3.5c-2.2-1.8-2-4.3-1.8-6.9c0.3-3.5,0.6-6.7-0.1-10.1c-0.5-2.7-3.7-4.2-6.2-3.5
				C339.3,366.7,338,369.4,338.6,372.1L338.6,372.1z"/>
		</g>
	</g>
	<g class="st2">
		<g>
			<path d="M347,487.3c13.6,8.9,30.7,15.4,46.9,10.2c6.1-2,3.5-11.6-2.7-9.6c-13.7,4.4-27.8-1.7-39.2-9.2
				C346.7,475.2,341.6,483.8,347,487.3L347,487.3z"/>
		</g>
	</g>
	<g class="st2">
		<g>
			<path d="M353.2,491.5c9.4,4.5,20.8,8.8,30.4,2.3c5.3-3.6,0.3-12.3-5-8.6c-6.4,4.3-14.1,0.6-20.3-2.3c-2.4-1.2-5.4-0.7-6.8,1.8
				C350.2,486.8,350.8,490.3,353.2,491.5L353.2,491.5z"/>
		</g>
	</g>
	<g class="st2">
		<g>
			<path d="M360.1,453.1c9.8-2.5,19.8-4.2,29.9-5c2.7-0.2,5-2.1,5-5c0-2.5-2.3-5.2-5-5c-11,0.9-21.9,2.7-32.5,5.4
				C351.2,445,353.9,454.7,360.1,453.1L360.1,453.1z"/>
		</g>
	</g>
	<g class="st2">
		<g>
			<path d="M364.1,448.3c7.4,0,14.8,0,22.2,0c6.4,0,6.4-10,0-10c-7.4,0-14.8,0-22.2,0C357.6,438.3,357.6,448.3,364.1,448.3
				L364.1,448.3z"/>
		</g>
	</g>
	<g class="st2">
		<g>
			<path d="M370.9,468.9c8.1,0.4,16.2-0.2,24.3-1.6c2.7-0.5,4.2-3.7,3.5-6.2c-0.8-2.8-3.5-4-6.2-3.5c-7.1,1.2-14.4,1.6-21.6,1.2
				C364.5,458.6,364.5,468.6,370.9,468.9L370.9,468.9z"/>
		</g>
	</g>
	<g class="st2">
		<g>
			<path d="M372.7,401.3c0.3,7.9,0.6,15.8,0.9,23.7c0.2,6.4,10.2,6.4,10,0c-0.3-7.9-0.6-15.8-0.9-23.7
				C382.5,394.9,372.5,394.8,372.7,401.3L372.7,401.3z"/>
		</g>
	</g>
	<g class="st2">
		<g>
			<path d="M224.4,270.9c3.7,5.2,6.6,10.9,8.6,16.9c1,3,1.7,6,2.2,9.1c0.3,1.5,0.4,3,0.6,4.6c0.1,0.8,0.1,1.7,0.2,2.5
				c0,0.3,0,0.6,0,0.8c-0.2,1.5,0.4,1.2,1.5-1.1c0.9,0,1.8,0,2.7,0c0.1,0,0.1,0,0.2,0.1c-2.2-1.6-5.6-0.4-6.8,1.8
				c-1.5,2.5-0.4,5.3,1.8,6.8c2.1,1.5,5.1,1.4,7.2,0c2.4-1.5,3.4-4.2,3.5-6.9c0.2-4.7-0.7-9.7-1.7-14.3c-2-9.1-5.9-17.9-11.3-25.5
				c-1.6-2.2-4.4-3.2-6.8-1.8C224,265.4,222.8,268.7,224.4,270.9L224.4,270.9z"/>
		</g>
	</g>
	<g class="st2">
		<g>
			<path d="M225.8,261.4c2.9,3,5.2,6.4,6.9,10.3c1.5,3.4,2.9,7.8,2.6,11.6c-0.1,1.8-1.2,3.2-2.3,4.7c-1.5,2.1-3,4.2-4.4,6.3
				c-3,4.2-5.9,8.4-8.9,12.6c-1.6,2.2-0.4,5.6,1.8,6.8c2.5,1.5,5.3,0.4,6.8-1.8c3.4-4.9,6.9-9.7,10.3-14.6c3.3-4.6,6.8-8.9,6.7-14.9
				c-0.3-10.4-5.3-20.7-12.4-28.1C228.4,249.7,221.3,256.7,225.8,261.4L225.8,261.4z"/>
		</g>
	</g>
	<g class="st2">
		<g>
			<path d="M220.8,259.6c4.2,8.7,6.9,18.2,7.9,27.7c0.4,4.4,0.9,9.1,0.3,13.5c-0.5,3.7-2.1,7.2-6,7.7c-2.7,0.4-4.1,3.8-3.5,6.2
				c0.8,2.9,3.5,3.9,6.2,3.5c5.7-0.8,10-5.5,12-10.7c2.1-5.4,1.8-11.8,1.4-17.5c-0.9-12.4-4.1-24.3-9.5-35.5
				c-1.2-2.4-4.6-3.1-6.8-1.8C220.1,254.3,219.6,257.2,220.8,259.6L220.8,259.6z"/>
		</g>
	</g>
	<g class="st2">
		<g>
			<path d="M209.5,346.3c7.7,19.8,17.9,38.6,30.6,55.7c3.2,4.3,6.5,8.5,10,12.5c3.4,4,6.9,8,11.2,11.1c2,1.4,4.2,2.5,6.6,3.2
				c2.5,0.8,5.2,1,7.6,1.9c4,1.5,6.5,5.4,8.5,8.9c6,10.7,10.4,22.4,14,34c1.9,6.1,11.6,3.5,9.6-2.7c-3.4-10.9-7.6-21.6-12.6-31.8
				c-2.2-4.4-4.6-8.8-8-12.4c-3.6-3.8-8.1-5.7-13.2-6.8c-4.9-1.1-8.1-3.2-11.6-6.9c-3.6-3.8-7-7.9-10.3-12.1
				c-6.5-8.2-12.3-16.8-17.5-25.8c-5.9-10.1-11-20.7-15.2-31.6c-1-2.5-3.4-4.3-6.2-3.5C210.6,340.8,208.6,343.8,209.5,346.3
				L209.5,346.3z"/>
		</g>
	</g>
	<g class="st2">
		<g>
			<path d="M372.6,400.4c-0.6,8.1,0.1,16,1.6,24c1.2,6.1,8.5,9.6,14.1,8c6.4-1.8,9.2-8,8-14.1c-1.1-5.9-1.2-11.9-0.8-17.8
				c0.5-6.2-5.6-11.5-11.5-11.5C377.4,388.9,373,394.1,372.6,400.4L372.6,400.4z"/>
		</g>
	</g>
	<g class="st2">
		<g>
			<path d="M398.3,419c14.8,0,14.8-23,0-23C383.5,396,383.4,419,398.3,419L398.3,419z"/>
		</g>
	</g>
	<g class="st2">
		<g>
			<path d="M358,349.9c-4.7,9.6-6.5,24,0.1,33.1c7.8,10.7,17.2,20.8,31.7,17.9c6.1-1.2,9.6-8.5,8-14.1c-1.7-6.3-8-9.3-14.1-8
				c2-0.4,1.5,0.3,0.9-0.1c-0.9-0.7-1.7-1.5-2.4-2.4c-1.8-1.9-3.2-4-5-5.9c-2.2-2.3,0.7,0.8-0.1,1c0.1,0,0-3.4,0-3.7
				c0-2-0.1-4.2,0.8-6c2.7-5.6,1.5-12.4-4.1-15.7C368.7,342.8,360.7,344.3,358,349.9L358,349.9z"/>
		</g>
	</g>
	<g class="st2">
		<g>
			<path d="M411.3,411.5c0.5,0.2,1,0.3,1.5,0.5c1.2,0.5,1,0.4-0.6-0.3c0.5-0.1,2,1,2.4,1.2c1.7,0.9,3.3,2,4.9,3.1
				c2.3,1.7,6.3,1.9,8.9,1.2c2.7-0.7,5.6-2.8,6.9-5.3c3.2-6,1.1-11.9-4.1-15.7c-4.2-3-8.9-5.2-13.7-6.9c-5.7-2-12.8,2.3-14.1,8
				C401.8,403.8,405.2,409.4,411.3,411.5L411.3,411.5z"/>
		</g>
	</g>
	<g class="st2">
		<g>
			<path d="M379.1,446.5c4.3,0,8.6,0,12.9,0c3.4,0,7.8-0.7,10.9,1c6.2,3.5,11.7-6,5.6-9.5c-4-2.2-8-2.5-12.5-2.5
				c-5.6,0-11.2,0-16.8,0C372,435.5,372,446.5,379.1,446.5L379.1,446.5z"/>
		</g>
	</g>
	<g class="st2">
		<g>
			<path d="M391.1,441.8c2.1,0.9,3.9,2.5,5.8,3.8c2.3,1.6,4.5,2.9,7.1,3.9c2.8,1.1,6-1.2,6.8-3.8c0.9-3.1-1.1-5.7-3.8-6.8
				c-2.1-0.8-4-2.4-5.8-3.7c-2.3-1.6-4.5-2.9-7.1-4c-2.7-1.1-6,1.2-6.8,3.8C386.4,438.2,388.3,440.7,391.1,441.8L391.1,441.8z"/>
		</g>
	</g>
</g>
<g id="Layer_8">
	<g class="st3">
		<g>
			<path d="M254.6,284.9c32.1,0.3,64.2,0.5,96.3,0.8c10.2,0.1,20-9,19.5-19.5c-0.5-10.6-8.6-19.4-19.5-19.5
				c-32.1-0.3-64.2-0.5-96.3-0.8c-10.2-0.1-20,9-19.5,19.5C235.5,276,243.6,284.8,254.6,284.9L254.6,284.9z"/>
		</g>
	</g>
	<g class="st3">
		<g>
			<path d="M169.6,295.2c-0.2,16.2,3.8,32.9,9.1,48.1c5.8,16.7,12.9,33.1,20.7,49c6.1,12.6,12.7,25.2,21.1,36.4
				c7,9.3,13.7,18.2,22.8,25.3c11.8,9.3,23.7,17.4,38.8,20.3c11.8,2.3,23.7,3.3,35.7,3.1c8.4-0.1,16.8-0.5,25.2,0.5
				c11.9,1.4,27.3-6.6,35.4-14.6c8.7-8.7,15.2-22.9,14.6-35.4c-0.6-12.9-4.8-26.3-14.6-35.4c-3.4-2.6-6.7-5.2-10.1-7.8
				c-7.8-4.5-16.2-6.8-25.2-6.8c-14.4-1.7-28.9,0.5-43.3-1.1c4.4,0.6,8.9,1.2,13.3,1.8c-4.2-0.6-8.4-1.5-12.4-3c4,1.7,8,3.4,11.9,5
				c-3.2-1.4-5.9-3.1-8.7-5.1c3.4,2.6,6.7,5.2,10.1,7.8c-5.5-4.2-10.2-9.1-14.5-14.6c2.6,3.4,5.2,6.7,7.8,10.1
				c-12.8-16.9-22.2-36.9-30.4-56.3c1.7,4,3.4,8,5,11.9c-5.9-14.1-11.4-28.7-13.6-43.9c0.6,4.4,1.2,8.9,1.8,13.3
				c-0.4-2.9-0.6-5.8-0.6-8.8c0.2-12.7-5.7-26.4-14.6-35.4c-8.7-8.7-22.9-15.2-35.4-14.6C192.3,246.4,170,267.1,169.6,295.2
				L169.6,295.2z"/>
		</g>
	</g>
	<g class="st3">
		<g>
			<path d="M366.7,441.9c2.8-0.6,5.6-1.1,8.4-1.7c3.3-0.8,6.1-2.3,8.5-4.5c2.7-1.8,4.9-4.1,6.4-7c1.8-2.9,2.8-6,3-9.3
				c0.7-3.3,0.6-6.6-0.4-10c-2-6-5.7-11.9-11.5-14.9c-2-0.8-4-1.7-6-2.5c-4.4-1.2-8.9-1.2-13.3,0c-2.8,0.6-5.6,1.1-8.4,1.7
				c-3.3,0.8-6.1,2.3-8.5,4.5c-2.7,1.8-4.9,4.1-6.4,7c-1.8,2.9-2.8,6-3,9.3c-0.7,3.3-0.6,6.6,0.4,10c2,6,5.7,11.9,11.5,14.9
				c2,0.8,4,1.7,6,2.5C357.9,443.1,362.3,443.1,366.7,441.9L366.7,441.9z"/>
		</g>
	</g>
	<g class="st3">
		<g>
			<path d="M198,353.3c19.7,42.1,54.6,77.7,96.1,98.4c11.7,5.8,27.6,3.5,34.2-9c6-11.3,3.5-28-9-34.2c-9.3-4.6-18.1-10-26.5-16
				c-1-0.8-2.1-1.5-3.1-2.3c-2.5-1.9,4.9,4,0.8,0.6c-2-1.7-4-3.3-6-5c-3.9-3.4-7.7-7-11.3-10.7c-3.6-3.7-7.1-7.6-10.4-11.5
				c-0.7-0.8-1.3-1.6-2-2.4c-3.5-4.3,3.4,4.6,0.1,0.1c-1.4-1.9-2.8-3.8-4.1-5.7c-6-8.7-11.3-18-15.8-27.6
				c-5.6-11.9-23.6-15.8-34.2-9C194.8,327,192.1,340.6,198,353.3L198,353.3z"/>
		</g>
	</g>
	<g class="st3">
		<g>
			<path d="M357.9,274.7c1,7.7,4.7,14.1,7.7,21.1c2.9,6.6,5.1,13.6,6.7,20.6c1.6,6.9,2.5,13.9,2.7,21c0.1,4,1.3,12.4-3.1,14.4
				c-2.4,1.2-3.1,4.7-1.8,6.8c1.5,2.5,4.4,3,6.8,1.8c6.6-3.1,8-11.1,8.1-17.6c0.1-8-0.6-15.9-2-23.8c-1.4-7.7-3.5-15.3-6.3-22.6
				c-1.5-3.8-3.1-7.4-4.9-11.1c-1.6-3.4-3.4-7-3.9-10.7c-0.3-2.7-2.1-5-5-5C360.4,269.7,357.5,272,357.9,274.7L357.9,274.7z"/>
		</g>
	</g>
	<g class="st3">
		<g>
			<path d="M357,283.1c0.9,26.2,11.1,51.6,8.3,78c-0.3,2.7,2.5,5,5,5c2.9,0,4.7-2.3,5-5c2.8-26.4-7.5-51.8-8.3-78
				C366.8,276.7,356.8,276.6,357,283.1L357,283.1z"/>
		</g>
	</g>
	<g class="st3">
		<g>
			<path d="M350.4,476.2c9.3,8.7,22.8,10.7,34.4,5.5c2.5-1.1,3.1-4.7,1.8-6.8c-1.5-2.5-4.4-2.9-6.8-1.8c-7.3,3.3-16.5,1.4-22.3-4
				C352.8,464.7,345.7,471.7,350.4,476.2L350.4,476.2z"/>
		</g>
	</g>
	<g class="st3">
		<g>
			<path d="M353.1,440.2c7.9,0,15.8,0,23.7,0c6.4,0,6.4-10,0-10c-7.9,0-15.8,0-23.7,0C346.7,430.2,346.7,440.2,353.1,440.2
				L353.1,440.2z"/>
		</g>
	</g>
	<g class="st3">
		<g>
			<path d="M373.8,448.6c4.6,0.4,9.1,0,13.6-0.9c2.7-0.5,4.2-3.7,3.5-6.2c-0.8-2.8-3.5-4-6.2-3.5c-3.6,0.7-7.2,0.8-10.9,0.5
				c-2.7-0.2-5,2.5-5,5C368.8,446.5,371.1,448.4,373.8,448.6L373.8,448.6z"/>
		</g>
	</g>
	<g class="st3">
		<g>
			<path d="M213.6,213.5c-0.8,28.5-0.4,61.6,22.9,82.1c2,1.8,5.1,2,7.1,0c1.8-1.8,2-5.3,0-7.1c-21.2-18.7-20.6-49.2-19.9-75
				C223.8,207.1,213.8,207.1,213.6,213.5L213.6,213.5z"/>
		</g>
	</g>
	<g class="st3">
		<g>
			<path d="M229,237c0.8,4.8,1.5,9.7,2.2,14.5c0.1,0.6,0.2,1.3,0.3,1.9c-0.1-1-0.1-1,0,0.3c0.1,1,0.3,1.9,0.4,2.9
				c0.3,2.6,0.6,5.2,0.9,7.8c1.1,9.4,1.9,18.8,2.5,28.3c0.6,9.4,1,18.9,1.1,28.3c0,1.9,0,3.9-0.1,5.8c0,0.5,0.1,1.7-0.2,2.1
				c0.2-1.5,0.2-1.7,0-0.6c-0.1,0.4-0.2,0.9-0.3,1.3c-0.2,0.7-0.6,1.5-0.7,2.3c-0.3,0.7-0.1,0.4,0.4-0.9c-0.2,0.4-0.4,0.8-0.6,1.1
				c-0.2,0.4-0.4,0.7-0.7,1.1c0.9-1.2,1.1-1.4,0.4-0.6c-0.8,0.7-0.6,0.6,0.6-0.3c-0.4,0.3-0.7,0.5-1.1,0.7
				c-4.5,2.6-6.5,9.1-3.6,13.7c2.9,4.5,8.9,6.4,13.7,3.6c8.9-5.2,11.7-15.2,12.1-24.9c0.4-9.9-0.3-19.9-0.9-29.8
				c-1.3-21.4-3.7-42.7-7.2-63.9c-0.9-5.2-7.5-8.5-12.3-7C230.4,226.5,228.1,231.5,229,237L229,237z"/>
		</g>
	</g>
	<g class="st3">
		<g>
			<path d="M348.5,345.1c0.9,8.3-1.4,15.9,4.2,23.1c2.5,3.2,5.7,5.3,9.3,7c1.8,0.9,3.7,1.7,5.6,2.3c0.9,0.3,1.8,0.5,2.8,0.8
				c2,0.6,1.7,0.4-0.9-0.5c3.8,4.9,12.3,4,16.3,0c4.9-4.9,3.8-11.3,0-16.3c-3.6-4.7-9.4-4.6-14.2-7.2c-0.4-0.2-0.9-0.5-1.3-0.7
				c-1.1-0.7-0.9-0.5,0.6,0.7c0.9-0.5-0.7,1.7,0.4-0.2c1-1.6,0.3-7.2,0.1-9c-0.7-6.2-4.8-11.5-11.5-11.5
				C354.3,333.6,347.8,338.9,348.5,345.1L348.5,345.1z"/>
		</g>
	</g>
	<g class="st3">
		<g>
			<path d="M429.7,279.3c7.6,14.4,22.9,24.4,36.7,32.1c16.3,9.1,34.2,13.8,52.8,10.3c6.1-1.1,9.6-8.5,8-14.1c-1.8-6.4-8-9.2-14.1-8
				c-12.8,2.4-25.7-2.6-36.6-8.9c-10-5.8-21.4-12.5-26.9-23C442.6,254.5,422.8,266.2,429.7,279.3L429.7,279.3z"/>
		</g>
	</g>
	<g class="st3">
		<g>
			<path d="M509.4,258.7c19.4,5.1,37.5,14.9,55.6,23.2c5.6,2.6,12.4,1.6,15.7-4.1c2.9-4.9,1.6-13.1-4.1-15.7
				c-19.9-9.1-39.9-20-61.1-25.5C501.2,232.7,495.1,254.9,509.4,258.7L509.4,258.7z"/>
		</g>
	</g>
	<g class="st3">
		<g>
			<path d="M436.5,383.1c4.3,17,12.3,32.2,23.2,45.8c3.7,4.6,11.7,3.9,15.6,0c4.6-4.6,3.7-10.9,0-15.6c-8.5-10.6-14.2-23-17.5-36.1
				C454.3,363.6,433.1,369.4,436.5,383.1L436.5,383.1z"/>
		</g>
	</g>
	<g class="st3">
		<g>
			<path d="M541.3,447.8c17-9.3,32.5-21.1,46-35c9.9-10.2-5.7-25.7-15.6-15.6c-12.3,12.6-26.1,23.1-41.5,31.6
				C517.8,435.6,528.8,454.6,541.3,447.8L541.3,447.8z"/>
		</g>
	</g>
	<g class="st4">
		<g>
			<path class="st5" d="M416.1,209c7.3,1.5,14.5,3.5,21.5,6.2c0.6,0.2,5.7,2.3,3.3,1.3c-2.4-1,2.7,1.3,3.2,1.5
				c3.5,1.7,6.9,3.5,10.3,5.5c9.5,5.5,23.4,2.5,28.7-7.5c5.3-10,2.6-22.9-7.5-28.7c-15-8.6-31.4-15.1-48.4-18.6
				c-10.7-2.2-23.2,3.1-25.8,14.7C399,193.7,404.6,206.6,416.1,209L416.1,209z"/>
		</g>
	</g>
	<g class="st3">
		<g>
			<path d="M392.6,431.8c7.4,0.8,14.8,1.7,21.3,5.6c6.1,3.7,11.6-5.8,5.6-9.5c-8.2-4.9-17.5-6.1-26.9-7.1
				C385.5,420,385.6,431,392.6,431.8L392.6,431.8z"/>
		</g>
	</g>
	<g class="st3">
		<g>
			<path d="M407.9,415c-0.3-5.1-0.1-10.2,1-15.2c1.4-6.9-9.2-9.9-10.6-2.9c-1.2,6-1.8,12-1.4,18.1C397.3,422,408.3,422.1,407.9,415
				L407.9,415z"/>
		</g>
	</g>
</g>
<g id="Layer_6" class="st0">
	<g class="st2">
		<g>
			<path d="M322.8,311c1.4,9.6,5.8,18.4,8.5,27.6c1.4,4.8,2.5,9.6,3.4,14.5c0.2,1.2,0.4,2.4,0.6,3.7c0.6,3.1-0.2-3,0,0.2
				c0.2,2.8,0.5,5.5,0.7,8.3c0.6,10.4,8.8,20.5,20,20c10.3-0.5,20.7-8.8,20-20c-0.7-11.9-2.4-24-5.6-35.5c-2.7-9.9-7.5-19.2-9-29.4
				c-1.6-10.4-15.2-17-24.6-14C325.5,290,321.1,299.9,322.8,311L322.8,311z"/>
		</g>
	</g>
	<g class="st2">
		<g>
			<path d="M219.4,228.4c1.5,8.7,7.4,16.4,12.3,23.5c4.9,7.1,10.2,14.2,16.3,20.3c12.8,12.7,29.8,21.5,48.2,21.2
				c10.5-0.1,20.5-9.1,20-20c-0.5-10.7-8.8-20.1-20-20c-0.4,0-4.5,0.2-4.7-0.2c0.4,0.7,3.8,0.7-0.1-0.2c-1.3-0.3-2.5-0.7-3.8-1.1
				c-4.7-1.5,3.2,1.9-1-0.5c-1.4-0.8-2.8-1.5-4.2-2.4c-0.5-0.3-4.1-2.8-1.9-1.2c2.2,1.6-1.3-1.1-1.7-1.5c-1.3-1.2-2.5-2.4-3.8-3.6
				c-2-2.1-3.9-4.3-5.7-6.6c2.7,3.3-0.8-1.2-1.1-1.5c-1-1.4-2-2.9-3-4.3c-1.6-2.4-3.3-4.8-4.9-7.3c-0.2-0.3-2.7-3.8-2.5-4.1
				c0.2,0.6,0.5,1.3,0.7,1.9c-0.4-1-0.6-2-0.7-3c-1.7-10.3-15.1-17.1-24.6-14C222.2,207.5,217.6,217.4,219.4,228.4L219.4,228.4z"/>
		</g>
	</g>
	<g class="st2">
		<g>
			<path d="M343.1,505.2c9.9,0.3,19.9,0.6,29.8,0.9c10.5,0.3,20.5-9.4,20-20c-0.5-11.1-8.8-19.7-20-20c-9.9-0.3-19.9-0.6-29.8-0.9
				c-10.5-0.3-20.5,9.4-20,20C323.6,496.3,331.9,504.9,343.1,505.2L343.1,505.2z"/>
		</g>
	</g>
	<g class="st2">
		<g>
			<path d="M359.9,433.7c9.4,0,18.8,0,28.3,0c6.4,0,6.4-10,0-10c-9.4,0-18.8,0-28.3,0C353.5,423.7,353.5,433.7,359.9,433.7
				L359.9,433.7z"/>
		</g>
	</g>
	<g class="st2">
		<g>
			<path d="M256.6,241.6c-0.4-9.6-0.1-19.3,1.1-28.8c-0.5,3.5-1,7.1-1.4,10.6c2-14.7,6.1-28.8,11.8-42.5c-1.3,3.2-2.7,6.4-4,9.6
				c5-11.7,10.8-23.3,18.5-33.4c-2.1,2.7-4.2,5.4-6.3,8.1c3.3-4.2,6.9-8,11.1-11.3c-2.7,2.1-5.4,4.2-8.1,6.3c4.6-3.5,9.7-6.2,15-8.5
				c-3.2,1.3-6.4,2.7-9.6,4c14.8-6,30.6-10.4,46.4-12.6c-3.5,0.5-7.1,1-10.6,1.4c16-2.1,32-1.3,48,0.2c9.6,0.9,21.7-5.1,28.3-11.7
				c6.9-6.9,12.2-18.3,11.7-28.3c-0.5-10.3-3.9-21.1-11.7-28.3c-8.2-7.6-17.2-10.6-28.3-11.7c-35.2-3.4-70.2,0.2-103.4,13.2
				c-14,5.5-25.4,11.5-36.7,21.5c-8.1,7.1-14.7,16.2-20.4,25.3c-10.1,16.2-18,34.7-23.5,52.9c-6.2,20.5-8.7,42.7-7.8,64.1
				c0.5,10.5,4.2,20.7,11.7,28.3c6.9,6.9,18.3,12.2,28.3,11.7c10.3-0.5,21.1-3.9,28.3-11.7C251.9,262.2,257.1,252.2,256.6,241.6
				L256.6,241.6z"/>
		</g>
	</g>
	<g class="st6">
		<g>
			<path class="st5" d="M449.2,180.1c1.8,0,3.5,0.2,5.3,0.4c-2.8-0.4-5.6-0.8-8.4-1.1c4.1,0.7,7.9,2,11.8,3.6
				c-2.5-1.1-5-2.1-7.5-3.2c8.4,3.7,16.1,8.4,23.3,14c-2.1-1.6-4.3-3.3-6.4-4.9c30.5,24,52.6,56.7,77.9,85.7
				c10.9,12.5,33.6,12,44.5,0c12.2-13.3,11.6-31.3,0-44.5c-17.9-20.5-34.2-42.5-52.9-62.4c-22.7-24.2-52.7-49.8-87.6-50.5
				c-16.5-0.3-32.3,14.7-31.5,31.5C418.5,166,431.5,179.8,449.2,180.1L449.2,180.1z"/>
		</g>
	</g>
	<g class="st6">
		<g>
			<path class="st5" d="M524.5,302.9c1.7-0.1,3.2,0,4.9,0.1c-2.8-0.4-5.6-0.8-8.4-1.1c3.2,0.5,6.3,1.4,9.3,2.7
				c-2.5-1.1-5-2.1-7.5-3.2c7.9,3.7,14.9,9,21.8,14.2c-2.1-1.6-4.3-3.3-6.4-4.9c5.3,4.1,10.3,8.5,14.6,13.7
				c-1.6-2.1-3.3-4.3-4.9-6.4c2.2,2.8,3.9,5.7,5.4,8.9c-1.1-2.5-2.1-5-3.2-7.5c1.3,3.1,2.1,6.3,2.6,9.6c-0.4-2.8-0.8-5.6-1.1-8.4
				c1.3,11.4,1.2,23.4-0.2,34.8c0.4-2.8,0.8-5.6,1.1-8.4c-0.7,4.8-1.8,9.5-3.5,14.1c1.1-2.5,2.1-5,3.2-7.5c-0.3,0.8-0.8,1.5-1.4,2.2
				c1.6-2.1,3.3-4.3,4.9-6.4c-0.3,0.3-0.6,0.6-1,0.9c2.1-1.6,4.3-3.3,6.4-4.9c-0.3,0.2-0.7,0.4-1,0.6c2.5-1.1,5-2.1,7.5-3.2
				c-0.3,0.1-0.7,0.2-1,0.3c5.6,0,11.2,0,16.7,0c-0.3-0.1-0.6-0.1-0.9-0.2c4.6,2.7,9.3,5.4,13.9,8.1c-0.3-0.2-0.5-0.5-0.8-0.7
				c-12.2-11.1-32.7-13-44.5,0c-11.1,12.1-13,32.7,0,44.5c9.1,8.3,20.5,12.2,32.9,8.8c9.1-2.5,17.4-9.1,22.1-17.2
				c5.8-9.8,7.4-21.8,8.6-32.9c0.8-7.6,0.7-15.3,0.6-22.9c-0.2-9.4-0.9-19.2-4.3-28.1c-7.4-19-21-31.4-36.9-43.3
				c-14.4-10.8-30.7-20.1-49.3-19.5c-16.4,0.6-32.3,14.1-31.5,31.5C493.8,287.9,506.9,303.5,524.5,302.9L524.5,302.9z"/>
		</g>
	</g>
	<g class="st7">
		<g>
			<path class="st5" d="M420.4,348.1c0.3-77.2,0.3-154.5-0.2-231.7c-0.1-9.6-8.4-18.9-18.4-18.4c-9.9,0.4-18.5,8.1-18.4,18.4
				c0.5,77.2,0.5,154.5,0.2,231.7c0,9.6,8.5,18.9,18.4,18.4C412,366.1,420.3,358.5,420.4,348.1L420.4,348.1z"/>
		</g>
	</g>
	<g class="st2">
		<g>
			<path d="M380.4,456.4c7.3,0.3,14.6,0.6,22,0.9c7.1,0.3,7.1-10.7,0-11c-7.3-0.3-14.6-0.6-22-0.9
				C373.3,445.1,373.4,456.1,380.4,456.4L380.4,456.4z"/>
		</g>
	</g>
	<g class="st2">
		<g>
			<path d="M168.1,360.6c13.1,19.8,27.7,38.8,43.6,56.4c6.4,7,13,13.8,19.9,20.3c6.5,6.1,13.6,12,21.1,16.9
				c5.6,3.6,12.4,6.1,18.6,8.3c6.7,2.3,14.3,2.7,21.3,3.3c14.6,1.2,32.4-7.6,42.4-17.6c10.4-10.4,18.2-27.5,17.6-42.4
				c-0.7-15.5-5.8-31.6-17.6-42.4c-4-3.1-8.1-6.3-12.1-9.4c-9.4-5.4-19.5-8.2-30.3-8.2c-0.5,0-1.1-0.1-1.6-0.1
				c5.3,0.7,10.6,1.4,16,2.1c-1.6-0.3-3-0.7-4.5-1.3c4.8,2,9.6,4,14.3,6c-2-1-3.7-2.1-5.5-3.4c4,3.1,8.1,6.3,12.1,9.4
				c-16.8-13.3-31.4-30.6-44.6-47.5c3.1,4,6.3,8.1,9.4,12.1c-5.8-7.5-11.3-15.2-16.5-23.1c-8.6-13-20.5-23.3-35.9-27.6
				c-14.4-4-33.5-2.2-46.2,6c-12.8,8.3-24.1,20.6-27.6,35.9C158.6,329.6,159.2,347.1,168.1,360.6L168.1,360.6z"/>
		</g>
	</g>
</g>
<g id="Layer_7" class="st0">
	<g class="st2">
		<g>
			<path d="M220.9,262.9c-4.1,18.8,4.3,36.2,19.5,47.3c13.2,9.6,30.1,11.3,45.9,12.6c7.8,0.7,15.5,1.3,23.3,1.9
				c10.2,0.8,20,0.7,28.9-5.1c7-4.5,13.3-10.4,19.8-15.6c6.4-5.2,12.9-10.4,19.3-15.6c8-6.4,7.2-21,0-27.6c-8.5-7.8-19.1-6.9-27.6,0
				c-9.9,8-19.9,15.8-29.7,24c-0.5,0.4-1,0.8-1.5,1.2c1.6-1.2,1.8-1.3,0.7-0.5c-0.4,0.3-0.9,0.6-1.4,0.9c-1.2,0.7-0.9,0.6,1-0.2
				c-3.7,0,1.3,0.7-1.1,0.1c-1.3-0.3-3.3-0.2-4.6-0.3c-6.5-0.5-12.9-1.1-19.4-1.6c-5.9-0.5-11.9-0.9-17.8-1.6c1.8,0.2,2.2,0.4,0.2,0
				c-1.6-0.3-3.3-0.6-4.9-1c-1.1-0.3-2.2-0.6-3.2-0.9c0,0-4.7-1.7-2.3-0.7c2.4,1-1.7-0.9-2.2-1.2c-0.2-0.1-3.8-2.7-1.7-1
				c2.2,1.8-0.9-1-1.4-1.4c-3.2-2.8,0.9,1.9-0.2,0c-0.3-0.5-2.1-2.5-1.9-3.1c-0.3,1.2,1.1,3.3,0.1,0c-0.7-2.6-0.3-2-0.1,0.3
				c-0.4-3.9-1,3.7-0.1-0.5c2.2-9.9-3-21.6-13.6-24C235.1,247,223.3,252.2,220.9,262.9L220.9,262.9z"/>
		</g>
	</g>
	<g class="st2">
		<g>
			<path d="M231.3,275.5c3.6,21.5,24,36.1,44.2,40.1c11.8,2.4,23.6,2.9,34.4-3.3c4.3-2.4,8-5.9,11.6-9.2c1.2-1.1,2.8-3.2,4.3-3.8
				c-2.1,1.6-2.3,1.8-0.5,0.5c0.8-0.5,1.6-0.9,2.5-1.3c9.2-4.5,12.4-18.2,7-26.7c-6-9.4-16.9-11.9-26.7-7c-6,3-11.5,7.9-16.2,12.6
				c-2.9,2.9,2.8-1.4-0.5,0.4c-2.1,1.1-3.1,1.7-0.3,0.4c-2.2,0.5-2.1,0.5,0.3,0.1c-0.5,0-1.1,0-1.6,0c-1.1,0-2.2-0.1-3.3-0.2
				c2.1,0.3,2.5,0.3,1,0.1c-3.3-0.8-6.6-1.7-9.9-2.6c-1.3-0.5-1.1-0.4,0.7,0.4c-0.8-0.4-1.5-0.7-2.3-1.1c-0.5-0.3-5.1-3.2-2.8-1.6
				c2.2,1.6-1.5-1.5-1.9-1.9c-0.5-0.5-1-1.1-1.5-1.7c1.4,1.8,1.6,2.1,0.9,0.9c-0.3-0.7-2-4.9-1.4-2.3c0.7,2.8-0.5-2.8-0.6-3.3
				c-1.7-10.1-14.7-16.6-24-13.6C234,255.1,229.4,264.7,231.3,275.5L231.3,275.5z"/>
		</g>
	</g>
	<g class="st2">
		<g>
			<path d="M346.5,269.2c2.1,1.7,4,3.4,5.9,5.4c0.7,0.8,1.4,1.6,2.1,2.4c-2.7-2.8-0.3-0.4,0.3,0.5c1.4,2,2.6,4,3.7,6.1
				c0.6,1.2,1.1,2.4,1.8,3.6c1.1,2-1-3,0.2,0.5c1.8,5.3,3.4,10.7,4.4,16.2c0.3,1.6,0.6,3.1,0.8,4.7c-0.3-2.1-0.1-1,0,0.5
				c0.3,3.2,0.5,6.3,0.7,9.5c1.3,24.6,0.1,49.4-2.6,73.9c-1.1,10.2,9.8,19.9,19.5,19.5c11.5-0.5,18.3-8.6,19.5-19.5
				c2.9-26.3,4.3-53.2,2.2-79.6c-2.1-26.2-9.6-54-30.9-71.3c-7.9-6.4-19.9-8.3-27.6,0C340,248.8,338,262.4,346.5,269.2L346.5,269.2z
				"/>
		</g>
	</g>
	<g class="st2">
		<g>
			<path d="M373.1,443.9c0.8-0.8,1.6-1.5,2.5-2.3c-1.7,1.3-3.4,2.6-5.1,3.9c1.8-1.4,3.7-2.5,5.8-3.4c-2,0.8-4,1.7-6,2.5
				c2.1-0.9,4.3-1.5,6.5-1.9c-2.2,0.3-4.4,0.6-6.6,0.9c1.1-0.1,2.2-0.2,3.4-0.3c13-0.5,25.6-11.1,25-25c-0.6-13.1-11-25.6-25-25
				c-13.6,0.6-26.1,5.6-35.9,15.2c-9.4,9.2-9.9,26.3,0,35.4C347.9,453.1,363.1,453.6,373.1,443.9L373.1,443.9z"/>
		</g>
	</g>
	<g class="st2">
		<g>
			<path d="M228.9,420.4c12.1,10.9,24.5,21.4,37.4,31.2c11.6,8.8,25,16.5,39.6,18.5c7,0.9,12.9,1.2,19.3-2.5c5.2-3,10.1-9,11.5-14.9
				c1.5-6.4,1.1-13.6-2.5-19.3c-3.3-5-8.7-10.6-14.9-11.5c-3-0.4-5.9-1-8.7-1.9c-0.2-0.1-3.8-1.3-3.8-1.4c3.2,1.4,4,1.7,2.3,0.9
				c-0.7-0.3-1.5-0.7-2.2-1.1c-5.4-2.8-10.1-6.6-15.2-9.9c2.1,1.4,3.3,2.5,0.5,0.3c-1.1-0.9-2.3-1.8-3.4-2.8
				c-2.9-2.4-5.8-4.8-8.7-7.3c-5.3-4.5-10.5-9.1-15.7-13.7c-9.7-8.7-25.9-10.3-35.4,0C220.2,394.6,218.5,411.1,228.9,420.4
				L228.9,420.4z"/>
		</g>
	</g>
	<g class="st2">
		<g>
			<path d="M224.9,352.8c-0.2,8.3,4.9,14.8,9.8,21c4.8,6.2,9.9,12.2,15.5,17.8c11.1,11.2,24,20.5,38.8,26c8.3,3.1,17.1,4.8,26,4.8
				c6.4,0,6.4-10,0-10c-17.7-0.1-34.5-7.9-48.1-19.1c-7-5.7-13.2-12.2-19.1-19.1c-2.9-3.4-5.7-6.9-8.4-10.5
				c-2.4-3.3-4.6-6.7-4.5-10.9C235,346.3,225,346.3,224.9,352.8L224.9,352.8z"/>
		</g>
	</g>
	<g class="st2">
		<g>
			<path d="M346.8,368.9c-1,9.3-0.7,19.3,7.4,25.5c6.7,5.2,15.9,5.7,23.9,3.8c6.2-1.5,3.6-11.2-2.7-9.6c-4.9,1.2-11,1.2-15.2-2
				c-5.3-4-4.1-11.8-3.5-17.6c0.3-2.7-2.5-5-5-5C348.9,363.9,347.1,366.2,346.8,368.9L346.8,368.9z"/>
		</g>
	</g>
	<g class="st2">
		<g>
			<path d="M351.3,368.6c8.4-8.4,14.7-18.7,18.4-29.9c1.8-5.5,2.9-11.3,3.3-17.1c0.4-5.7-0.7-11.7-4.9-15.9
				c-4.5-4.6-11.6,2.5-7.1,7.1c2.7,2.7,2.2,7.3,1.8,10.7c-0.5,4.8-1.7,9.5-3.3,14.1c-3.2,9-8.5,17.2-15.3,24
				C339.7,366,346.7,373.1,351.3,368.6L351.3,368.6z"/>
		</g>
	</g>
	<g class="st2">
		<g>
			<path d="M352.8,498.5c8.1,6.1,18.6,9,28.6,7.8c2.7-0.3,5-2.1,5-5c0-2.5-2.3-5.3-5-5c-8.6,1-16.7-1.2-23.6-6.5
				c-2.2-1.6-5.6-0.3-6.8,1.8C349.5,494.2,350.6,496.9,352.8,498.5L352.8,498.5z"/>
		</g>
	</g>
	<g class="st2">
		<g>
			<path d="M371.4,438.8c7.9,0,15.8,0,23.7,0c6.4,0,6.4-10,0-10c-7.9,0-15.8,0-23.7,0C365,428.8,365,438.8,371.4,438.8L371.4,438.8z
				"/>
		</g>
	</g>
	<g class="st2">
		<g>
			<path d="M218.1,237.5c1.6,3.8,3.4,7.4,5.2,11.1c1,2,2,3.9,2.9,5.9c0.4,0.9,0.8,1.7,1.2,2.6c1.2,2.8-0.6-1.7,0.4,1.1
				c1.4,3.7,2.6,7.5,3.2,11.4c-0.3-2.2,0,0.4,0,0.9c0.1,1,0.1,2.1,0.1,3.1c0,0.5-0.4,3.6,0,1.4c-0.1,0.9-0.3,1.8-0.6,2.7
				c-0.5,1.8-1,3.5-1.7,5.1c0.8-1.9-0.5,1-0.7,1.3c-0.5,1-0.9,1.9-1.4,2.9c-1.8,3.6-3.8,7.3-5.7,10.8c-4,7.1-8.2,14.1-12.7,21
				c-2.9,4.4-1,11.2,3.6,13.7c5,2.6,10.6,1.1,13.7-3.6c4.8-7.4,9.3-14.9,13.6-22.6c4.3-7.8,9.3-16.2,11.1-25.1
				c1.9-9.6,0.4-19.3-3.1-28.3c-3.4-8.7-8.1-16.8-11.7-25.4c-2.1-4.8-9.5-6.3-13.7-3.6C216.7,227,215.9,232.3,218.1,237.5
				L218.1,237.5z"/>
		</g>
	</g>
	<g class="st2">
		<g>
			<path d="M277.6,238.7c-0.7-15.9-0.6-31.8,1.5-47.6c-0.5,3.5-1,7.1-1.4,10.6c1.8-12.2,4.7-24.2,9.4-35.6c-1.3,3.2-2.7,6.4-4,9.6
				c3.8-8.7,8.5-16.9,14.3-24.4c-2.1,2.7-4.2,5.4-6.3,8.1c4.6-5.8,9.8-11.1,15.6-15.7c-2.7,2.1-5.4,4.2-8.1,6.3
				c5.5-4.2,11.4-7.7,17.7-10.4c-3.2,1.3-6.4,2.7-9.6,4c7.1-2.8,14.4-4.6,21.9-5.6c-3.5,0.5-7.1,1-10.6,1.4
				c19-2.4,38.2-0.7,57.3-1.8c10.6-0.6,20.6-4,28.3-11.7c6.9-6.9,12.2-18.3,11.7-28.3c-0.5-10.3-3.9-21.1-11.7-28.3
				c-7.5-6.9-17.7-12.4-28.3-11.7c-17,1-34.1-0.3-51.1,1.1c-21.5,1.8-43,6.5-61.2,18.7c-32,21.3-53.3,55.6-60.8,93.2
				c-4.5,22.5-5.6,45.3-4.6,68.1c0.5,10.5,4.1,20.7,11.7,28.3c6.9,6.9,18.3,12.2,28.3,11.7c10.3-0.5,21.1-3.9,28.3-11.7
				C272.9,259.4,278.1,249.4,277.6,238.7L277.6,238.7z"/>
		</g>
	</g>
	<g class="st2">
		<g>
			<path d="M371.2,481.7c11.8,11.2,24,21,40.6,23.1c15,1.9,30.6,1,42.7-9c4.8-4,4.1-12.2,0-16.3c-4.7-4.7-11.5-4-16.3,0
				c-5.8,4.8-18.2,3.6-25.1,2.4c-10.5-1.8-18.2-9.4-25.6-16.4C376.8,455.3,360.5,471.5,371.2,481.7L371.2,481.7z"/>
		</g>
	</g>
	<g class="st6">
		<g>
			<path class="st5" d="M417.2,113.1c7.5,0.1,15,0.8,22.5,1.8c-2.8-0.4-5.6-0.8-8.4-1.1c26,3.6,51.5,10.7,75.7,20.8
				c-2.5-1.1-5-2.1-7.5-3.2c13.6,5.8,26.8,12.5,38.7,21.3c-2.1-1.6-4.3-3.3-6.4-4.9c1.2,1,2.3,2.2,3.2,3.4c-1.6-2.1-3.3-4.3-4.9-6.4
				c9.2,12.2,15.2,27.3,21.2,41.3c-1.1-2.5-2.1-5-3.2-7.5c4.9,11.6,9.5,23.4,13.5,35.4c2.9,8.7,5.9,17.6,7.2,26.7
				c1,7.2,8.5,15.3,14.5,18.8c6.8,4,16.7,5.6,24.3,3.2c7.6-2.5,15-7.2,18.8-14.5c4.2-8,4.4-15.4,3.2-24.3
				c-2-13.9-7.3-27.6-12.2-40.7c-6.8-18.1-14.2-36.1-22.9-53.3c-2.8-5.4-5.7-10.8-9.2-15.8c-6.7-9.4-14.4-15.7-24.2-21.8
				c-20.3-12.7-43.3-21.8-66.1-28.8c-25-7.6-51.5-12.8-77.7-13.3c-16.5-0.3-32.3,14.7-31.5,31.5C386.5,99,399.6,112.8,417.2,113.1
				L417.2,113.1z"/>
		</g>
	</g>
	<g class="st7">
		<g>
			<path class="st5" d="M368.8,141.7c3.4-0.3,6.9,0.2,10.3,0.6c-2.8-0.4-5.6-0.8-8.4-1.1c16.7,2.3,33.3,6.4,49.6,10.8
				c16.9,4.5,33.8,9.5,49.9,16.2c-2.5-1.1-5-2.1-7.5-3.2c3.9,1.7,7.9,3.4,11.3,5.9c-2.1-1.6-4.3-3.3-6.4-4.9
				c7,5.5,13.3,12.4,19.4,18.9c5.5,5.8,10.8,11.9,15.7,18.3c-1.6-2.1-3.3-4.3-4.9-6.4c17.3,22.6,31,47.9,47.1,71.3
				c4.7,6.8,10.6,12.2,18.8,14.5c7.5,2.1,17.6,1.1,24.3-3.2c13.5-8.7,21.3-28.6,11.3-43.1c-12.7-18.4-24.1-37.7-36.5-56.4
				c-12.3-18.5-26.5-35.5-42.5-50.9c-6.6-6.4-13.3-12.6-21.7-16.6c-8.4-4-17.2-7.4-25.9-10.4c-17.3-6-34.9-10.9-52.7-15.2
				c-8.7-2.1-17.4-4-26.3-5.5c-8-1.4-16.7-3.4-24.8-2.7c-8.5,0.8-16.1,3-22.3,9.2c-5.5,5.5-9.6,14.4-9.2,22.3
				C338,126,351.3,143.3,368.8,141.7L368.8,141.7z"/>
		</g>
	</g>
	<g class="st7">
		<g>
			<path class="st5" d="M401.1,392.2c16.5,0,32.3-14.5,31.5-31.5c-0.8-17.1-13.8-31.5-31.5-31.5c-16.5,0-32.3,14.5-31.5,31.5
				C370.4,377.7,383.5,392.2,401.1,392.2L401.1,392.2z"/>
		</g>
	</g>
	<g class="st7">
		<g>
			<path class="st5" d="M482.3,348.5c7.8,12.5,17.4,24.3,28.8,33.8c13.6,11.3,27.4,19.3,43.8,26c7,2.9,18,0.5,24.3-3.2
				c6.5-3.8,12.8-11.3,14.5-18.8c1.8-8.1,1.4-17.1-3.2-24.3c-4.7-7.4-10.8-11.2-18.8-14.5c-0.5-0.2-1-0.4-1.5-0.6
				c2.5,1.1,5,2.1,7.5,3.2c-8.8-3.8-17-8.5-24.7-14.3c2.1,1.6,4.3,3.3,6.4,4.9c-8-6.2-15.1-13.3-21.3-21.2c1.6,2.1,3.3,4.3,4.9,6.4
				c-2.2-3-4.3-6-6.3-9.2c-8.7-14-28.5-20.7-43.1-11.3C479.6,314.4,472.9,333.6,482.3,348.5L482.3,348.5z"/>
		</g>
	</g>
	<g class="st7">
		<g>
			<path class="st5" d="M438.1,234.5c6.7-3,12.9-6.9,19.4-10.4c3.5-1.9,7-3.7,10.6-5.4c1.7-0.8,3.3-1.5,5-2.2
				c-3.4,1.5,0.5-0.2,1.7-0.7c14.2-5.7,28.9-10,43.5-14.4c10.5-3.1,18.2-14.9,14.7-25.8c-3.4-10.6-14.6-18-25.8-14.7
				c-15.2,4.5-30.5,9.1-45.2,15.1c-8.4,3.4-16.8,7.1-24.9,11.4c-6.7,3.6-13.2,7.8-20.2,10.9c-10.1,4.5-13.2,19.9-7.5,28.7
				C416.1,237.4,427.3,239.3,438.1,234.5L438.1,234.5z"/>
		</g>
	</g>
	<g class="st2">
		<g>
			<path d="M379.9,446.8c9.8,0.1,19.5,0.1,29.3-0.1c7.1-0.1,7.1-11.1,0-11c-9.8,0.1-19.5,0.2-29.3,0.1
				C372.8,435.7,372.8,446.7,379.9,446.8L379.9,446.8z"/>
		</g>
	</g>
</g>
<g id="Rect" class="st0">
	
		<rect x="276.3" y="287.6" transform="matrix(0.9671 -0.2544 0.2544 0.9671 -66.0614 88.4903)" class="st7" width="65.4" height="24"/>
	
		<rect x="327.6" y="291.9" transform="matrix(9.082162e-02 0.9959 -0.9959 9.082162e-02 643.3828 -84.1639)" class="st7" width="80.3" height="36.8"/>
	
		<rect x="172.8" y="173.2" transform="matrix(-0.9959 9.082162e-02 -9.082162e-02 -0.9959 434.3801 434.1187)" class="st7" width="69.1" height="107.4"/>
	
		<rect x="369" y="476.9" transform="matrix(-0.4896 0.872 -0.872 -0.4896 989.7571 405.5461)" class="st7" width="14.3" height="31"/>
	
		<rect x="281.3" y="399.5" transform="matrix(-0.2153 0.9766 -0.9766 -0.2153 821.2051 273.188)" class="st7" width="39.1" height="134"/>
	
		<rect x="330.6" y="268.2" transform="matrix(-0.4378 0.8991 -0.8991 -0.4378 735.1648 103.1971)" class="st7" width="9.5" height="26.5"/>
	
		<rect x="266.9" y="223" transform="matrix(9.082162e-02 0.9959 -0.9959 9.082162e-02 508.7256 -40.398)" class="st7" width="19.1" height="70.9"/>
	
		<rect x="250.5" y="264.9" transform="matrix(-0.3279 0.9447 -0.9447 -0.3279 609.0893 143.448)" class="st7" width="6" height="47.1"/>
	
		<rect x="291.6" y="237.1" transform="matrix(0.8436 0.537 -0.537 0.8436 189.181 -142.0949)" class="st7" width="93.8" height="33.1"/>
	
		<rect x="301.3" y="39.5" transform="matrix(9.082162e-02 0.9959 -0.9959 9.082162e-02 357.6729 -269.7169)" class="st7" width="50.4" height="43.1"/>
	
		<rect x="168.6" y="120" transform="matrix(-0.4735 0.8808 -0.8808 -0.4735 456.2372 22.7131)" class="st7" width="105.4" height="55.4"/>
	
		<rect x="287.8" y="268.9" transform="matrix(-0.9991 -4.327805e-02 4.327805e-02 -0.9991 602.5936 569.5682)" class="st7" width="39.4" height="18.7"/>
	
		<rect x="187.8" y="293.2" transform="matrix(-0.9766 -0.2153 0.2153 -0.9766 326.0242 665.4524)" class="st7" width="23" height="43.6"/>
	<rect x="251.7" y="30.9" transform="matrix(0.5 0.866 -0.866 0.5 180.5918 -191.0383)" class="st7" width="8" height="60"/>
	
		<rect x="331.2" y="363.4" transform="matrix(0.9959 -9.082162e-02 9.082162e-02 0.9959 -32.7565 32.2069)" class="st7" width="12.5" height="25.2"/>
	
		<rect x="372.9" y="379.3" transform="matrix(4.470855e-02 0.999 -0.999 4.470855e-02 747.9514 -3.1464)" class="st7" width="5.4" height="20.5"/>
	
		<rect x="383.1" y="387.7" transform="matrix(-0.9999 1.082075e-02 -1.082075e-02 -0.9999 775.3911 795.6402)" class="st7" width="4.9" height="24.5"/>
	
		<rect x="230.5" y="269" transform="matrix(-0.4643 0.8857 -0.8857 -0.4643 596.3797 220.2815)" class="st7" width="2.2" height="43"/>
	
		<rect x="197.8" y="364" transform="matrix(-0.912 0.4103 -0.4103 -0.912 606.0261 686.7604)" class="st7" width="63.1" height="88.9"/>
	
		<rect x="344.8" y="370.5" transform="matrix(-0.2153 0.9766 -0.9766 -0.2153 804.3889 124.2788)" class="st7" width="14.9" height="29.6"/>
	
		<rect x="345.1" y="355.4" transform="matrix(0.5579 0.8299 -0.8299 0.5579 454.7205 -126.8038)" class="st7" width="2.6" height="16"/>
	
		<rect x="384.1" y="379.7" transform="matrix(-0.604 0.797 -0.797 -0.604 924.885 313.1357)" class="st7" width="1.2" height="13.2"/>
	
		<rect x="390.6" y="387" transform="matrix(-4.327805e-02 0.9991 -0.9991 -4.327805e-02 800.3624 15.4172)" class="st7" width="4.4" height="7.8"/>
	
		<rect x="467.1" y="296.2" transform="matrix(-0.9415 -0.3371 0.3371 -0.9415 868.2467 756.7083)" class="st7" width="65.4" height="13.6"/>
	
		<rect x="395.6" y="481.9" transform="matrix(5.331330e-03 1 -1 5.331330e-03 893.3898 92.104)" class="st7" width="9.5" height="26.5"/>
	<rect x="420.4" y="481.2" transform="matrix(0.13 0.9915 -0.9915 0.13 858.0603 11.0192)" class="st7" width="4.8" height="26.5"/>
	
		<rect x="457.3" y="273.8" transform="matrix(0.3584 0.9335 -0.9335 0.3584 564.3468 -247.2348)" class="st7" width="9.5" height="26.5"/>
	
		<rect x="514.9" y="255.1" transform="matrix(-0.1766 0.9843 -0.9843 -0.1766 892.118 -184.0424)" class="st7" width="16.3" height="52.1"/>
	
		<rect x="540.5" y="277.4" transform="matrix(0.245 0.9695 -0.9695 0.245 702.0673 -299.7024)" class="st7" width="6" height="47.1"/>
	
		<rect x="428.5" y="254.1" transform="matrix(-0.8869 0.4621 -0.4621 -0.8869 1019.6523 279.7943)" class="st7" width="94.1" height="21.3"/>
	
		<rect x="594.1" y="317.5" transform="matrix(0.999 -4.470855e-02 4.470855e-02 0.999 -14.5746 27.0044)" class="st7" width="4.7" height="43.6"/>
	
		<rect x="445.5" y="367.5" transform="matrix(-0.9843 -0.1766 0.1766 -0.9843 818.72 833.0294)" class="st7" width="1.8" height="25.2"/>
	
		<rect x="409.8" y="380.9" transform="matrix(-0.1309 0.9914 -0.9914 -0.1309 854.3737 33.376)" class="st7" width="5.4" height="20.5"/>
	
		<rect x="400.3" y="394.1" transform="matrix(0.9953 9.725016e-02 -9.725016e-02 0.9953 41.1493 -37.0626)" class="st7" width="1" height="19"/>
	<rect x="492.8" y="252.6" transform="matrix(0.13 0.9915 -0.9915 0.13 701.431 -251.2744)" class="st7" width="2.2" height="43"/>
	
		<rect x="529.6" y="430.2" transform="matrix(0.5328 0.8462 -0.8462 0.5328 641.0082 -238.3857)" class="st7" width="13.6" height="62.3"/>
	
		<rect x="427.3" y="381.2" transform="matrix(0.13 0.9915 -0.9915 0.13 766.4841 -88.0722)" class="st7" width="12.2" height="23.2"/>
	
		<rect x="442.7" y="359.7" transform="matrix(-0.6276 0.7785 -0.7785 -0.6276 1008.8245 252.8242)" class="st7" width="2.6" height="16"/>
	
		<rect x="547.6" y="233.4" transform="matrix(0.9843 0.1766 -0.1766 0.9843 51.1335 -97.3065)" class="st7" width="49.3" height="10.4"/>
	
		<rect x="506.8" y="263.9" transform="matrix(0.9614 0.2752 -0.2752 0.9614 93.8017 -137.7673)" class="st7" width="61.9" height="2.9"/>
	
		<rect x="683.6" y="476.7" transform="matrix(4.327805e-02 -0.9991 0.9991 4.327805e-02 143.8114 1276.0739)" class="st8" width="109.2" height="172.4"/>
	<text transform="matrix(0.9991 4.327805e-02 -4.327805e-02 0.9991 654.0477 513.1835)" class="st7"><tspan x="0" y="0" class="st9 st10">face: 40 - 50 </tspan><tspan x="0" y="72" class="st9 st10">hair: </tspan></text>
	<rect x="336.6" y="11.8" class="st8" width="71.8" height="17.6"/>
	<text transform="matrix(1 0 0 1 336.5581 20.3237)" class="st7 st9 st10">50x43</text>
</g>
<g id="Numbers" class="st0">
	<rect x="327.8" y="57.3" class="st8" width="36.6" height="29.7"/>
	<text transform="matrix(1 0 0 1 327.7891 65.7986)" class="st11 st9 st10">1</text>
	<rect x="241.6" y="61.2" class="st8" width="36.6" height="29.7"/>
	<text transform="matrix(1 0 0 1 241.5799 69.7327)" class="st11 st9 st10">2</text>
	<rect x="267.4" y="457.5" class="st8" width="36.6" height="29.7"/>
	<text transform="matrix(1 0 0 1 267.4471 465.9951)" class="st11 st9 st10">7</text>
	<rect x="203.1" y="386.9" class="st8" width="36.6" height="29.7"/>
	<text transform="matrix(1 0 0 1 203.054 395.376)" class="st11 st9 st10">6</text>
	<rect x="360.9" y="291.4" class="st8" width="36.6" height="29.7"/>
	<text transform="matrix(1 0 0 1 360.8921 299.9686)" class="st11 st9 st10">4a</text>
	<rect x="294.7" y="301.1" class="st8" width="36.6" height="29.7"/>
	<text transform="matrix(1 0 0 1 294.6588 309.6234)" class="st11 st9 st10">7a</text>
	<rect x="333.6" y="275.7" class="st8" width="36.6" height="29.7"/>
	<text transform="matrix(1 0 0 1 333.6422 284.1722)" class="st11 st9 st10">5a</text>
	<rect x="299.1" y="269.7" class="st8" width="36.6" height="29.7"/>
	<text transform="matrix(1 0 0 1 299.1044 278.2397)" class="st11 st9 st10">6a</text>
	<rect x="260.1" y="284.3" class="st8" width="36.6" height="29.7"/>
	<text transform="matrix(1 0 0 1 260.0829 292.7941)" class="st11 st9 st10">8a</text>
	<rect x="218.8" y="283.5" class="st8" width="36.6" height="29.7"/>
	<text transform="matrix(1 0 0 1 218.8168 292.0513)" class="st11 st9 st10">1a</text>
	<rect x="251" y="253.6" class="st8" width="36.6" height="29.7"/>
	<text transform="matrix(1 0 0 1 251.0152 262.0911)" class="st11 st9 st10">2a</text>
	<rect x="308.9" y="229.3" class="st8" width="36.6" height="29.7"/>
	<text transform="matrix(1 0 0 1 308.8997 237.8231)" class="st11 st9 st10">3a</text>
	<rect x="195.1" y="297.1" class="st8" width="36.6" height="29.7"/>
	<text transform="matrix(1 0 0 1 195.127 305.5954)" class="st11 st9 st10">5</text>
	<rect x="178.7" y="199.2" class="st8" width="36.6" height="29.7"/>
	<text transform="matrix(1 0 0 1 178.7188 207.7605)" class="st11 st9 st10">4</text>
	<rect x="210.9" y="115.8" class="st8" width="36.6" height="29.7"/>
	<text transform="matrix(1 0 0 1 210.9288 124.283)" class="st11 st9 st10">3</text>
	<rect x="423.1" y="489.8" class="st8" width="36.6" height="29.7"/>
	<text transform="matrix(1 0 0 1 423.0719 498.3527)" class="st11 st9 st10">10</text>
	<rect x="396.7" y="487.2" class="st8" width="36.6" height="29.7"/>
	<text transform="matrix(1 0 0 1 396.6909 495.6995)" class="st11 st9 st10">9</text>
	<rect x="374.5" y="492.1" class="st8" width="36.6" height="29.7"/>
	<text transform="matrix(1 0 0 1 374.5229 500.5977)" class="st11 st9 st10">8</text>
	<rect x="370.2" y="383.5" class="st8" width="36.6" height="29.7"/>
	<text transform="matrix(1 0 0 1 370.2421 392.0125)" class="st11 st9 st10">4c</text>
	<rect x="350.2" y="386.1" class="st8" width="36.6" height="29.7"/>
	<text transform="matrix(1 0 0 1 350.1826 394.6471)" class="st11 st9 st10">3c</text>
	<rect x="345.2" y="358.1" class="st8" width="36.6" height="29.7"/>
	<text transform="matrix(1 0 0 1 345.2483 366.6411)" class="st11 st9 st10">1c</text>
	<rect x="331.1" y="367.1" class="st8" width="36.6" height="29.7"/>
	<text transform="matrix(1 0 0 1 331.0652 375.6003)" class="st11 st9 st10">2c</text>
	<rect x="477.9" y="291.4" class="st8" width="36.6" height="29.7"/>
	<text transform="matrix(1 0 0 1 477.8906 299.9686)" class="st11 st9 st10">6b</text>
	<rect x="539.4" y="295.4" class="st8" width="36.6" height="29.7"/>
	<text transform="matrix(1 0 0 1 539.3557 303.8844)" class="st11 st9 st10">7b</text>
	<rect x="521.7" y="255.9" class="st8" width="36.6" height="29.7"/>
	<text transform="matrix(1 0 0 1 521.6511 264.4086)" class="st11 st9 st10">2b</text>
	<rect x="530.6" y="278.6" class="st8" width="36.6" height="29.7"/>
	<text transform="matrix(1 0 0 1 530.5995 287.1488)" class="st11 st9 st10">3b</text>
	<rect x="485.6" y="270" class="st8" width="36.6" height="29.7"/>
	<text transform="matrix(1 0 0 1 485.6281 278.5526)" class="st11 st9 st10">4b</text>
	<rect x="456.9" y="281.7" class="st8" width="36.6" height="29.7"/>
	<text transform="matrix(1 0 0 1 456.9186 290.2541)" class="st11 st9 st10">5b</text>
	<rect x="557.9" y="231" class="st8" width="36.6" height="29.7"/>
	<text transform="matrix(1 0 0 1 557.9232 239.5367)" class="st11 st9 st10">13</text>
	<rect x="441.3" y="272.3" class="st8" width="37.6" height="31.8"/>
	<text transform="matrix(1 0 0 1 441.2674 280.8348)" class="st11 st9 st10">1b</text>
	<rect x="402.8" y="405.3" class="st8" width="36.6" height="29.7"/>
	<text transform="matrix(1 0 0 1 402.7606 413.8157)" class="st11 st9 st10">8c</text>
	<rect x="380" y="376.1" class="st8" width="36.6" height="29.7"/>
	<text transform="matrix(1 0 0 1 379.9951 384.611)" class="st11 st9 st10">5c</text>
	<rect x="446.7" y="374.7" class="st8" width="36.6" height="29.7"/>
	<text transform="matrix(1 0 0 1 446.7256 383.1947)" class="st11 st9 st10">11c</text>
	<rect x="426.4" y="388.8" class="st8" width="36.6" height="29.7"/>
	<text transform="matrix(1 0 0 1 426.449 397.2758)" class="st11 st9 st10">10c</text>
	<rect x="441.8" y="358.1" class="st8" width="36.6" height="29.7"/>
	<text transform="matrix(1 0 0 1 441.7891 366.6411)" class="st11 st9 st10">12c</text>
	<rect x="407.1" y="386.1" class="st8" width="36.6" height="29.7"/>
	<text transform="matrix(1 0 0 1 407.0627 394.6471)" class="st11 st9 st10">9c</text>
	<rect x="594.6" y="340.9" class="st8" width="36.6" height="29.7"/>
	<text transform="matrix(1 0 0 1 594.5596 349.4124)" class="st11 st9 st10">12</text>
	<rect x="521.1" y="464.3" class="st8" width="36.6" height="29.7"/>
	<text transform="matrix(1 0 0 1 521.079 472.864)" class="st11 st9 st10">11</text>
	<rect x="382.5" y="402.9" class="st8" width="36.6" height="29.7"/>
	<text transform="matrix(1 0 0 1 382.5009 411.4189)" class="st11 st9 st10">7c</text>
	<rect x="389.9" y="389.7" class="st8" width="36.6" height="29.7"/>
	<text transform="matrix(1 0 0 1 389.9328 398.1728)" class="st11 st9 st10">6c</text>
</g>
<g id="Layer_4" class="st0">
	<line class="st12" x1="799" y1="290.5" x2="-12.2" y2="290.5"/>
	<line class="st12" x1="397.2" y1="5.5" x2="397.2" y2="614.9"/>
</g>
<g id="Layer_5" class="st0">
</g>
</svg>
